<svg width="376" height="106" viewBox="0 0 376 106" fill="none" xmlns="http://www.w3.org/2000/svg">
<g clip-path="url(#clip0_66_184)">
<path d="M349.15 69.532C349.802 69.4597 350.454 69.3873 351.033 69.1702C351.685 68.9532 352.409 68.7361 352.989 68.4467C354.438 67.6508 354.872 66.3485 354.365 64.7567C354.075 63.7438 353.496 62.8755 352.844 62.0796C352.772 62.0073 352.699 61.8626 352.554 61.7179C353.641 62.0796 354.727 62.152 355.742 62.0073C357.263 61.8626 358.711 61.4285 359.943 60.5602C361.536 59.4026 362.043 57.7385 361.247 55.9296C361.029 55.2785 360.595 54.772 360.305 54.1932C360.233 54.0485 360.16 53.9761 360.088 53.9037C361.102 53.4696 362.116 53.0355 363.13 52.529C364.868 51.5884 366.245 50.2137 367.114 48.3326C368.128 46.0896 367.911 43.7743 366.824 41.6037C366.462 40.8078 365.883 40.0843 365.448 39.3608C365.376 39.2884 365.303 39.1437 365.231 39.0714C365.738 38.9267 366.245 38.8543 366.752 38.7096C368.201 38.1308 368.852 36.8284 368.635 35.1643C368.273 32.9937 366.39 30.9678 364.217 30.5337C364.217 30.5337 364.144 30.5337 363.999 30.5337C364.144 30.606 364.217 30.6784 364.289 30.7508C364.868 31.1849 365.376 31.6913 365.665 32.2702C366.39 33.6449 366.1 35.0919 364.796 36.0325C363.854 36.6837 362.84 37.0455 361.754 37.1902C361.392 37.2625 360.957 37.3349 360.45 37.4072C360.667 37.5519 360.812 37.6243 360.957 37.769C362.188 38.5649 363.275 39.5778 364.072 40.8078C365.376 42.8337 365.448 44.8596 364.217 46.8855C362.188 50.069 359.218 51.8779 355.307 52.0226C355.307 52.0226 355.234 52.0226 355.162 52.0226C355.234 52.1673 355.379 52.2396 355.452 52.3843C355.886 53.1079 356.393 53.8314 356.756 54.5549C357.408 56.0743 356.973 57.449 355.669 58.462C353.858 59.8367 351.758 60.3432 349.512 60.1261H349.44C349.802 60.7049 350.091 61.2114 350.381 61.7902C350.743 62.4414 350.961 63.1649 350.888 63.8885C350.816 64.6844 350.454 65.3355 349.802 65.842C348.715 66.6379 347.484 66.9997 346.252 67.2167C344.514 67.5061 342.848 67.5785 341.109 67.3614C341.399 67.5785 341.616 67.8679 341.906 68.0126C342.775 68.5914 343.79 68.9532 344.804 69.1702C345.6 69.315 346.47 69.4597 347.266 69.532C347.846 69.532 348.498 69.532 349.15 69.532Z" fill="#BF9573"/>
<path d="M334.151 0.0723531C333.861 0.144706 333.571 0.217059 333.281 0.289412C331.688 0.723531 330.601 1.73647 329.804 3.11118C329.732 3.25589 329.587 3.47295 329.515 3.61766C327.704 1.88118 326.255 1.51942 324.517 2.46001C322.706 3.47295 321.981 5.13707 322.343 7.52472C320.46 6.00531 318.432 5.49884 316.259 6.80119C314.52 7.81414 313.941 9.55061 314.086 11.5041C314.52 9.47826 315.679 8.10355 317.708 7.59708C319.663 7.16296 321.402 7.52472 322.995 8.75473C323.068 8.1759 323.14 7.59708 323.358 7.0906C323.502 6.58413 323.72 6.07766 324.01 5.64354C324.734 4.48589 325.82 4.05177 327.197 4.41354C328.138 4.6306 328.935 5.13707 329.732 5.7159C329.877 5.8606 330.022 5.93295 330.239 6.07766C331.398 4.05177 333.137 2.74942 335.527 3.18354C338.135 3.69001 339.004 5.7159 339.366 8.10355C340.163 6.65649 341.539 6.29472 342.988 6.22237C346.03 6.15001 348.493 7.23531 350.304 9.76767C351.246 11.1424 351.608 12.6618 351.608 14.4706C351.68 14.2536 351.753 14.1812 351.753 14.1089C352.405 12.3 352.622 10.4188 352.115 8.53767C351.318 5.8606 349.435 4.19648 346.827 3.32824C345.668 2.89412 344.364 2.74942 343.133 2.96648C341.974 3.11118 341.032 3.5453 340.308 4.41354C340.09 3.83471 339.946 3.25589 339.656 2.74942C338.859 1.23 337.483 0.434119 335.817 0.0723531C335.672 0.0723531 335.599 0 335.454 0C334.947 0.0723531 334.585 0.0723531 334.151 0.0723531Z" fill="#BF9573"/>
<path d="M375.371 13.1682C374.937 11.7212 373.778 11.2147 372.402 10.9976C369.432 10.4912 366.534 10.6359 363.637 11.6488C361.101 12.5171 358.856 13.9641 356.9 15.8453C355.524 17.22 354.22 18.7394 352.916 20.1865C352.916 20.1865 352.916 20.2588 352.844 20.4035C353.061 20.2588 353.206 20.1865 353.351 20.1141C355.741 18.5947 358.059 17.003 360.45 15.5559C362.912 14.0365 365.593 13.3853 368.418 13.1682C369.287 13.0959 370.156 13.0235 371.025 13.0235C371.387 13.0235 371.822 13.0959 372.257 13.2406C372.836 13.3853 372.981 13.8194 372.764 14.3259C372.546 14.76 372.329 15.1941 371.967 15.6282C370.518 17.2924 368.78 18.6671 367.041 19.9694C363.637 22.4294 360.087 24.6724 356.321 26.5536C355.669 26.843 355.017 27.1324 354.292 27.4218C354.872 27.4942 355.379 27.6389 355.959 27.7112C357.842 27.8559 359.58 27.4218 361.319 26.7706C366.172 24.8171 370.301 21.923 373.561 17.7988C374.357 16.7859 375.009 15.7006 375.299 14.3982C375.299 14.3982 375.299 14.3982 375.371 14.3259C375.371 13.8918 375.371 13.53 375.371 13.1682Z" fill="#BF9573"/>
<path d="M296.197 12.7342C296.342 13.2407 296.415 13.7471 296.559 14.1812C297.139 15.773 298.153 17.003 299.457 18.0883C302.717 20.8377 306.556 22.6466 310.757 23.4424C310.902 23.4424 311.047 23.4424 311.192 23.5148C311.336 23.5148 311.409 23.5148 311.554 23.4424C311.336 23.2977 311.047 23.153 310.829 23.0083C308.584 21.706 306.266 20.476 304.02 19.1736C302.499 18.3054 301.123 17.2201 299.964 15.9177C298.95 14.7601 298.298 13.4577 298.298 11.9383C298.298 11.1424 298.588 10.7083 299.384 10.7083C300.254 10.7083 301.123 10.7083 301.992 10.9254C305.904 11.8659 309.381 13.5301 312.423 16.1348C313.437 16.9307 314.234 17.9436 314.741 19.1013L314.813 19.1736C314.741 17.3648 314.089 15.8454 313.002 14.4707C311.264 12.2277 309.018 10.7083 306.411 9.55065C304.527 8.75477 302.644 8.17594 300.616 8.24829C299.819 8.24829 299.022 8.46535 298.225 8.68241C297.067 9.04418 296.342 9.84006 296.27 11.0701C296.27 11.2148 296.197 11.2871 296.197 11.4318C296.197 11.8659 296.197 12.3001 296.197 12.7342Z" fill="#BF9573"/>
<path d="M308.801 48.1146C308.221 47.6804 307.569 47.391 307.062 46.8846C306.483 46.3781 306.048 45.7993 305.614 45.1481C305.034 44.1351 305.252 43.1222 306.048 42.3263C306.773 41.6028 307.714 41.1687 308.656 40.8793C308.946 40.8069 309.236 40.6622 309.525 40.5898C310.25 40.3004 310.612 39.794 310.467 38.9981C310.322 38.3469 310.105 37.6957 309.887 37.1169C309.308 35.8145 308.656 34.5122 308.077 33.2098C307.569 32.0522 307.28 30.8945 307.569 29.6645C307.714 29.0857 308.004 28.5792 308.221 28.0728C308.149 28.1451 308.004 28.2898 307.859 28.3622C306.266 29.7369 305.686 31.4733 305.976 33.4269C306.193 34.7292 306.555 36.0316 306.845 37.3339C307.062 38.4916 307.062 38.6363 305.976 39.1428C305.396 39.4322 304.744 39.7216 304.165 40.0834C303.73 40.3004 303.296 40.5898 302.934 40.9516C301.919 41.7475 301.702 42.8328 302.064 44.0628C302.354 45.0034 302.934 45.7993 303.513 46.5951C303.948 47.174 304.455 47.6804 304.962 48.2593C304.672 48.3316 304.31 48.404 304.02 48.5487C303.513 48.7657 303.006 48.9828 302.571 49.2722C300.905 50.4299 300.543 52.3834 301.702 54.1199C302.427 55.2775 303.513 56.001 304.744 56.5799C304.962 56.7246 305.179 56.7969 305.469 56.9416C304.527 59.1846 305.107 61.0658 307.062 62.5852C308.801 63.9599 310.829 64.394 313.002 64.394C312.93 64.394 312.857 64.3217 312.712 64.3217C311.553 63.8875 310.395 63.3811 309.453 62.5128C307.714 60.9211 307.207 58.9675 307.932 56.7246C308.004 56.5799 308.004 56.3628 308.077 56.2181C307.569 55.8563 307.062 55.6393 306.628 55.2775C306.266 54.9881 305.903 54.6263 305.541 54.1922C304.6 52.9622 304.672 51.5875 305.614 50.4299C306.338 49.5616 307.28 48.9828 308.221 48.5487C308.439 48.2593 308.656 48.1869 308.801 48.1146Z" fill="#BF9573"/>
<path d="M327.347 45.6548C326.477 46.3784 325.608 47.1743 324.739 47.8254C323.942 48.4766 323 48.9107 321.986 49.1278C320.32 49.4896 318.871 48.9107 317.713 47.7531C317.061 47.1019 316.481 46.306 315.829 45.5825C315.829 46.8848 316.119 48.1148 317.061 49.0554C317.785 49.779 318.654 50.3578 319.596 50.7919C319.886 50.9366 319.958 51.0813 319.958 51.4431C319.958 51.8772 320.03 52.3113 320.03 52.6731C320.03 52.8178 320.03 53.0349 319.886 53.1796C319.523 53.5413 319.089 53.9754 318.654 54.2649C317.93 54.699 317.205 54.6266 316.771 53.9031C316.409 53.3243 316.119 52.7454 315.902 52.0943C315.105 49.1278 314.815 46.1613 315.395 43.1225C315.684 41.4584 316.481 39.9389 317.133 38.4195C317.568 37.3342 317.93 36.1766 318.292 35.0913C318.582 34.2954 318.509 33.4272 318.147 32.7036C317.713 31.6907 317.205 30.7501 316.698 29.7372C316.481 29.3754 316.336 29.0136 316.046 28.6519C316.191 29.2307 316.336 29.7372 316.481 30.316C316.771 31.4013 317.061 32.5589 316.916 33.7166C316.843 34.223 316.698 34.7295 316.481 35.1636C314.308 39.1431 313.584 43.4119 313.873 47.9701C314.018 50.1407 314.598 52.1666 315.322 54.1201C315.467 54.6266 315.757 55.0607 316.046 55.4949C316.554 56.146 317.205 56.3631 318.002 56.146C318.582 55.929 319.089 55.7119 319.523 55.3502C319.886 55.1331 320.03 55.1331 320.393 55.3502C321.696 56.0737 323.073 56.5802 324.522 56.7972C327.274 57.2313 329.664 56.5078 331.765 54.7713C333.938 53.0349 335.315 50.7919 336.473 48.2595C336.473 48.2595 336.473 48.1872 336.473 48.0425C336.329 48.1872 336.256 48.3319 336.184 48.4043C334.59 50.3578 332.779 52.1666 330.606 53.469C329.013 54.4819 327.274 55.2054 325.391 55.2778C323.797 55.3502 322.276 55.0607 320.972 54.0478C320.682 53.8307 320.538 53.6137 320.61 53.1796C320.755 52.6007 320.827 52.0219 320.972 51.4431C321.045 51.1537 321.117 51.0813 321.407 51.009C323.87 50.2854 325.753 48.9831 326.984 46.6678C327.129 46.306 327.202 46.0166 327.347 45.6548Z" fill="#BF9573"/>
<path d="M337.051 53.1797C335.892 54.4097 334.661 55.712 333.43 56.8697C332.126 58.0997 330.605 59.1126 328.938 59.8362C325.172 61.3556 321.405 60.415 318.87 57.2315C318.797 57.0868 318.653 57.0144 318.58 56.942C319.522 59.4021 320.681 61.7174 323.506 62.4409C325.244 62.875 326.838 62.5132 328.359 61.7897C330.894 60.6321 332.995 58.8232 334.733 56.6526C335.53 55.6397 336.182 54.482 336.906 53.3967C337.051 53.252 337.124 53.1797 337.051 53.1797Z" fill="#BF9573"/>
<path d="M346.974 26.8434C346.974 27.5669 347.192 28.0734 347.771 28.5075C347.264 28.5798 346.829 28.5798 346.25 28.6522C347.119 29.231 348.061 29.4481 349.003 29.3034C350.234 29.0863 351.393 28.001 351.683 26.771C351.828 26.1198 351.683 25.8304 351.031 25.6134C348.133 24.6004 345.308 25.541 343.497 28.0734C342.845 29.014 342.411 29.9545 342.121 31.0398C343.57 29.5928 345.091 28.001 346.974 26.8434Z" fill="#BF9573"/>
<path d="M317.202 28.073C317.057 27.6389 316.912 27.1324 316.695 26.6983H316.767C317.057 27.2771 317.347 27.8559 317.564 28.4348C318.651 26.9153 317.926 24.6 316.188 24.0936C315.826 24.0212 315.536 24.0936 315.463 24.4553C315.101 25.4683 315.029 26.4089 315.463 27.4218C315.898 27.9283 316.55 28.2177 317.202 28.073Z" fill="#BF9573"/>
<path d="M320.318 102.308C317.203 101.512 314.016 100.716 310.902 99.8477C310.467 99.703 310.105 99.4859 309.598 99.1965C324.809 102.308 334.95 96.7365 340.093 82.0488C340.383 85.0153 338.138 91.9612 335.892 95.2171C333.139 99.1965 329.445 101.512 324.592 102.018C324.302 102.018 324.085 102.235 323.795 102.308C322.636 102.308 321.477 102.308 320.318 102.308Z" fill="#BF9573"/>
<path d="M333.427 75.0308C332.703 79.1549 332.196 83.9302 329.371 88.0543C327.777 90.3696 325.749 90.659 323.431 88.9949C321.403 87.5478 319.954 85.522 318.723 83.279C319.302 83.7131 319.954 84.1473 320.534 84.509C324.083 86.8243 327.632 86.2455 329.805 82.5555C331.327 80.0231 332.413 77.2014 333.427 75.0308Z" fill="#BF9573"/>
<path d="M292.647 50.5754C272.872 47.2472 253.314 48.5495 233.684 53.4696C246.65 45.7278 279.101 44.2084 292.647 50.5754Z" fill="#BF9573"/>
<path d="M350.813 69.6041C350.378 71.4853 349.943 73.3665 349.581 75.2476C348.712 79.6612 348.205 84.0747 349.871 88.5606C350.74 90.8759 350.957 93.3359 351.537 95.7236C352.044 97.8218 352.623 99.8477 353.058 101.946C353.131 102.308 353.131 102.669 352.841 103.104C351.972 100.644 351.175 98.1112 350.305 95.6512C349.726 93.9871 349.147 92.323 348.567 90.6588C347.408 87.403 347.046 84.1471 347.625 80.8912C348.277 77.4182 349.147 73.9453 349.943 70.4723C350.016 70.1829 350.233 69.8935 350.378 69.5317C350.595 69.6041 350.668 69.6041 350.813 69.6041Z" fill="#BF9573"/>
<path d="M300.906 93.9148C301.993 84.943 303.079 75.8989 304.093 67.4336C305.542 76.116 303.731 85.0877 300.906 93.9148Z" fill="#BF9573"/>
<path d="M13.5466 46.9172C16.589 47.2792 19.3415 48.2205 21.7319 49.6686C24.1223 51.1167 26.1506 52.9992 27.5993 55.2437C29.048 57.4883 30.2794 59.95 31.1487 62.5566C32.0179 65.2355 32.4525 67.9145 32.5249 70.7383C32.6698 74.6481 32.2352 78.2683 31.2211 81.7437C30.207 85.2191 28.3961 88.1153 25.9332 90.5047C23.4704 92.894 20.573 94.1973 17.1685 94.4145C11.2287 94.7765 6.73764 92.6044 3.69531 87.8257C1.16005 83.8435 -0.0713712 78.5579 0.00106505 72.0415C0.145938 66.1044 1.37735 60.6016 3.62288 55.7506C6.08571 50.465 9.12803 47.424 12.7498 46.7C13.112 46.6276 13.3293 46.7 13.5466 46.9172ZM12.3152 48.4377C9.56265 49.3066 7.09982 51.9855 4.99917 56.4022C2.82608 61.1085 1.6671 66.3216 1.52223 72.1863C1.52223 78.2683 2.68121 83.2642 5.0716 86.9568C7.82418 91.1563 11.8082 93.1112 17.096 92.7492C20.1383 92.6044 22.6736 91.4459 24.9191 89.2738C27.1647 87.1016 28.7583 84.4227 29.7724 81.2369C30.7865 77.9787 31.2211 74.5033 31.0038 70.7383C30.9313 67.9869 30.4243 65.3079 29.6275 62.7738C28.7583 60.2396 27.5993 57.9227 26.1506 55.823C24.7018 53.7232 22.7461 51.9855 20.4281 50.6822C18.1101 49.3066 15.43 48.5825 12.5325 48.3653L12.3152 48.4377Z" fill="black"/>
<path d="M36.148 79.79C36.2929 80.152 36.5102 80.3693 36.7275 80.3693C36.9448 80.4417 37.2345 80.2969 37.6692 79.9348L38.1038 79.5728C38.1038 78.4143 38.1762 77.4007 38.2487 76.387C38.3211 75.0113 38.5384 73.8529 38.8281 72.8392C39.1179 71.7531 39.5525 70.9567 40.0596 70.5223C40.4942 70.2326 40.7839 69.943 41.0737 69.7982C41.5083 69.6534 41.8705 69.581 42.2326 69.6534C42.6673 69.7982 42.8846 70.0154 43.1019 70.4499C43.1743 70.7395 43.2468 71.0291 43.2468 71.4635C43.2468 72.6944 42.8121 74.3597 41.8705 76.4594C41.2185 77.9075 40.4942 79.1384 39.7698 80.0796C39.8423 81.6725 39.9147 83.193 40.2044 84.7135C40.7115 87.8269 41.5807 90.0714 42.6673 91.4471C43.1743 92.1712 43.7538 92.6056 44.4057 92.7504C45.1301 92.8952 45.8545 92.8228 46.6513 92.3884C47.5929 91.8815 48.5346 90.7955 49.3314 89.0578C50.1282 87.4649 50.7801 85.51 51.2872 83.193C51.7218 81.0209 52.0115 78.8488 52.084 76.749C52.1564 74.5769 52.084 72.984 51.7942 71.9703C51.7218 71.4635 51.9391 71.1015 52.4462 71.0291C52.9532 70.9567 53.243 71.1015 53.3878 71.6083C53.6776 72.9116 53.8225 74.7217 53.6776 76.8938C53.5327 79.066 53.243 81.3105 52.8083 83.555C52.3013 86.0168 51.6494 88.1165 50.8526 89.8542C49.9109 91.8815 48.7519 93.2572 47.5205 93.9089C46.2891 94.5605 45.1301 94.7053 44.0436 94.3433C43.1019 94.0537 42.2326 93.4744 41.4359 92.4608C40.132 90.7955 39.2628 88.2613 38.6833 85.0031C38.5384 83.9171 38.3935 82.7586 38.2487 81.6001C37.7416 81.8897 37.2345 82.0346 36.7275 81.9621C35.9307 81.8897 35.2788 81.3829 34.7717 80.4417C34.5544 80.0072 34.6993 79.6452 35.1339 79.428C35.5685 79.1384 35.9307 79.2832 36.148 79.79ZM41.5807 71.3187C41.4359 71.3911 41.291 71.5359 41.1461 71.6807C40.8564 71.9703 40.5666 72.4772 40.3493 73.2736C40.0596 74.1425 39.9147 75.1561 39.8423 76.4594C39.7698 76.6766 39.7698 76.8214 39.7698 76.8938C39.9871 76.5318 40.2044 76.0974 40.3493 75.7354C41.2185 73.8529 41.5807 72.4048 41.5807 71.3187Z" fill="black"/>
<path d="M58.4569 82.3238C58.312 83.1203 58.1672 83.8443 58.0223 84.5684C57.7325 87.1749 58.3845 89.1299 59.8332 90.3607C61.789 92.026 64.0345 92.5329 66.6422 91.8088C68.2358 91.4468 69.757 90.5055 71.2057 89.1299C73.4512 87.1025 74.7551 85.0752 75.2621 83.0479C75.407 82.5411 75.6967 82.3238 76.2762 82.4686C76.7833 82.6135 77.0006 82.9031 76.8557 83.4823C76.2762 85.7993 74.7551 88.0438 72.2922 90.3607C70.6262 91.8812 68.8877 92.8949 67.0768 93.4017C63.9621 94.2706 61.2095 93.6189 58.8191 91.5192C56.9357 89.8539 56.2114 87.537 56.5011 84.3512C56.7909 81.6722 57.7325 78.9932 59.3986 76.1695C61.0646 73.4181 62.8755 71.3908 64.8313 70.0875C67.2217 68.567 69.3223 68.4946 70.9884 69.9427C72.2922 71.0288 72.6544 72.4768 72.0749 74.287C71.5679 75.735 70.5538 77.1831 68.9602 78.6312C67.5114 79.9345 65.8454 80.9482 63.9621 81.6722C62.0063 82.3962 60.1954 82.6135 58.4569 82.3238ZM58.964 80.8033C60.3402 81.0206 61.8614 80.7309 63.455 80.0793C65.0486 79.4277 66.5698 78.5588 67.8012 77.4003C69.1775 76.2419 70.0467 75.011 70.4813 73.8525C70.8435 72.7665 70.6262 71.8976 69.9018 71.1736C68.8153 70.2323 67.439 70.3047 65.7005 71.4632C63.9621 72.6217 62.296 74.4318 60.7749 77.0383C59.9781 78.2692 59.3986 79.5725 58.964 80.8033Z" fill="black"/>
<path d="M92.1414 74.6488C92.2862 72.8387 91.7792 71.3906 90.6202 70.3046C89.4612 69.2185 88.1574 69.2909 86.6362 70.4494C84.1009 72.4043 82.5073 75.7349 81.783 80.224C81.2759 83.6994 81.5657 86.3783 82.6522 88.4057C83.8112 90.433 85.3324 91.5914 87.2881 91.9535C89.3164 92.3155 91.417 91.8811 93.5177 90.5054C95.6908 89.1297 97.4292 87.03 98.7331 84.1338C98.9504 83.627 99.3126 83.4822 99.8196 83.7718C100.327 83.989 100.472 84.351 100.254 84.8578C98.8055 88.0436 96.8497 90.3606 94.3869 91.9535C91.9241 93.474 89.4612 94.0532 87.0708 93.6188C84.5356 93.1119 82.6522 91.7363 81.2759 89.2745C79.8996 86.8128 79.5375 83.7718 80.1169 80.0068C80.9137 75.0833 82.7247 71.463 85.6221 69.2909C86.7811 68.422 87.8676 67.9876 88.8817 68.06C89.8958 68.1324 90.7651 68.4945 91.6343 69.2185C92.3587 69.8701 92.8657 70.739 93.2279 71.7527C93.5901 72.7663 93.735 73.78 93.6625 74.866C93.6625 75.0833 93.5901 75.2281 93.3728 75.3729C93.2279 75.5177 93.0106 75.5901 92.7933 75.5901C92.576 75.5901 92.3587 75.5177 92.2862 75.3005C92.2138 75.0833 92.1414 74.866 92.1414 74.6488Z" fill="black"/>
<path d="M106.845 92.5328V92.75V92.8948V92.9672V93.0396V93.112C106.845 93.1844 106.772 93.3292 106.627 93.474C106.482 93.6189 106.338 93.7637 106.12 93.7637C105.831 93.7637 105.613 93.6913 105.468 93.474C105.323 93.3292 105.251 93.2568 105.251 93.112V92.9672V92.8224V92.5328V92.3156V92.1708V91.9535V91.6639C105.251 91.0123 105.251 90.2882 105.179 89.5642C105.106 88.8402 105.106 88.2609 105.034 87.8265C104.889 85.0027 104.816 81.0929 104.816 76.1694C104.816 63.1366 105.034 53.2172 105.541 46.3388C105.541 46.1216 105.613 45.9768 105.831 45.832C105.975 45.6871 106.193 45.6147 106.41 45.6147C106.845 45.6872 107.062 45.9768 107.134 46.4836C106.627 53.2172 106.41 63.1366 106.41 76.1694V81.1653C107.352 77.7623 108.583 74.9385 109.959 72.694C111.263 70.7391 112.567 69.4358 114.016 68.8566C115.899 68.1325 117.71 68.6393 119.521 70.2322C121.694 72.1872 122.781 75.8798 122.925 81.3101C122.925 82.903 122.853 85.0027 122.708 87.6817C122.563 90.4331 122.418 92.2432 122.418 92.9672C122.418 93.474 122.129 93.7637 121.622 93.7637C121.115 93.7637 120.825 93.474 120.825 92.9672C120.825 92.1708 120.897 90.3607 121.115 87.6093C121.259 85.0027 121.332 82.903 121.332 81.3101C121.259 76.3866 120.318 73.056 118.507 71.4631C117.203 70.3046 115.899 69.9426 114.668 70.377C113.581 70.7391 112.422 71.8251 111.336 73.5628C109.597 76.3142 108.293 79.6448 107.569 83.3374C107.134 85.5096 106.917 88.3333 106.845 91.6639V92.1708V92.5328Z" fill="black"/>
<path d="M130.314 47.9323C130.604 53.5799 130.532 60.8927 130.169 70.0157L129.88 76.0252L130.387 75.3012C131.691 73.6359 133.139 72.1878 134.733 70.9569C136.616 69.5088 138.282 68.7848 139.731 68.5676C141.687 68.3504 142.991 69.2192 143.787 71.1741C144.729 73.7083 144.222 76.17 142.121 78.6318C140.528 80.5143 138.427 81.9624 135.892 82.976C135.167 83.2657 134.008 83.7001 132.415 84.0621L130.966 84.4241C131.256 85.2206 131.98 86.1618 133.284 87.1755C134.443 88.1892 135.819 89.058 137.341 89.8545C138.862 90.7233 141.035 91.4474 143.86 92.0266C144.367 92.1714 144.512 92.461 144.439 92.9678C144.367 93.4747 144.005 93.6919 143.498 93.6195C140.6 92.9679 138.355 92.1714 136.616 91.3026C135.023 90.4337 133.574 89.4924 132.342 88.4788C130.966 87.3203 130.024 86.1618 129.59 85.0758C129.517 87.5375 129.517 89.8545 129.517 91.9542C129.517 92.1714 129.445 92.3886 129.3 92.5334C129.155 92.6782 128.938 92.7506 128.721 92.7506C128.503 92.7506 128.286 92.6782 128.141 92.5334C127.996 92.3886 127.924 92.1714 127.924 91.9542C127.924 88.6236 128.141 81.3107 128.576 69.8709C128.938 60.7479 129.01 53.5075 128.721 47.9323C128.721 47.7151 128.793 47.4979 128.938 47.3531C129.083 47.2083 129.228 47.0635 129.445 47.0635C129.662 47.0635 129.88 47.1359 130.024 47.2807C130.242 47.4979 130.314 47.7151 130.314 47.9323ZM129.807 80.1523C129.735 81.2383 129.735 82.3244 129.662 83.2657L129.735 83.1933C129.807 83.1933 129.807 83.1933 129.88 83.1209C129.952 83.1209 129.952 83.1209 129.952 83.1209C129.952 83.1209 130.024 83.1209 130.097 83.1209C130.169 83.0485 130.314 83.0485 130.532 82.976L132.053 82.614C133.574 82.1796 134.733 81.8176 135.385 81.528C137.63 80.5867 139.514 79.2834 140.962 77.6181C142.628 75.6632 143.135 73.6359 142.339 71.7534C141.904 70.5949 141.107 70.0881 139.948 70.2329C138.789 70.3777 137.341 71.0293 135.675 72.2602C134.226 73.4187 132.849 74.7944 131.618 76.3872C130.459 77.9077 129.88 79.0662 129.735 79.9351C129.88 80.0075 129.88 80.0799 129.807 80.1523Z" fill="black"/>
<path d="M164.648 73.0562C163.706 71.7529 162.257 71.4633 160.446 72.1873C158.636 72.9114 156.752 74.4318 154.796 76.7488C152.841 79.0657 151.392 81.4551 150.523 83.9892C149.509 86.5958 149.291 88.6955 149.943 90.2884C150.45 91.5917 151.247 92.1709 152.334 92.1709C153.348 92.0985 154.579 91.5193 156.1 90.4332C157.404 89.5644 158.636 88.4783 159.867 87.175C161.098 85.8717 161.968 84.7857 162.547 84.0616C163.706 82.3963 164.43 81.0931 164.793 79.9346C164.938 78.4141 165.155 77.0384 165.372 75.8799C165.517 75.4455 165.589 75.0835 165.662 74.8663C165.734 74.7215 165.734 74.6491 165.807 74.5043C165.807 74.4318 165.807 74.4318 165.879 74.287C165.952 74.2146 166.097 74.1422 166.241 73.9974C166.386 73.925 166.604 73.925 166.748 73.925C166.893 73.9974 167.111 74.0698 167.183 74.287C167.255 74.3594 167.328 74.5043 167.328 74.6491V74.7939V74.9387V75.2283C167.328 75.3731 167.255 75.5903 167.183 75.8799C167.111 76.5316 166.966 77.4004 166.748 78.4865C166.676 79.1381 166.531 79.7174 166.314 80.2966C166.169 82.1791 166.097 83.9892 166.241 85.5821C166.386 87.4646 166.748 88.9851 167.328 90.1436C167.98 91.3745 168.777 92.0985 169.791 92.3157C170.298 92.4605 170.443 92.7502 170.37 93.257C170.298 93.7638 169.936 93.981 169.429 93.9086C167.907 93.5466 166.748 92.5329 165.952 90.8676C165.3 89.5644 164.865 87.8267 164.72 85.7269C164.648 85.0753 164.648 84.4961 164.648 83.8444L163.851 85.0029C163.199 85.8717 162.257 87.0302 161.026 88.3335C159.722 89.7092 158.418 90.8676 157.042 91.8089C155.304 93.1122 153.71 93.7638 152.334 93.7638C150.595 93.8362 149.291 92.8226 148.494 90.7952C147.77 88.8403 147.915 86.3786 149.002 83.3376C150.016 80.6586 151.537 78.1245 153.565 75.7351C155.666 73.201 157.766 71.5357 159.867 70.6668C162.475 69.7256 164.503 70.16 166.024 72.1149C166.314 72.4769 166.314 72.839 165.879 73.201C165.372 73.563 165.01 73.4906 164.648 73.0562Z" fill="black"/>
<path d="M177.398 89.4199C178.485 89.4199 178.992 89.9268 178.992 91.0128C178.992 92.0989 178.485 92.6057 177.398 92.6057C176.312 92.6057 175.805 92.0989 175.805 91.0128C175.805 89.9268 176.384 89.4199 177.398 89.4199Z" fill="black"/>
<path d="M212.893 55.1726C213.834 53.6521 214.341 52.4212 214.269 51.48C214.196 50.7559 213.762 50.1767 213.11 49.8147C212.386 49.4527 211.299 49.3079 209.923 49.4527C208.474 49.5251 207.098 49.8871 205.577 50.5387C203.186 51.5524 200.868 52.9281 198.478 54.5934C196.16 56.3311 194.421 58.0688 193.407 59.8065C193.262 60.1685 193.19 60.4581 193.262 60.6029C193.335 60.8201 193.625 61.0374 194.059 61.1822C194.566 61.327 195.508 61.5442 196.812 61.689C197.029 61.7614 197.609 61.7614 198.55 61.9062L200.434 62.1958C200.796 62.2682 201.448 62.3406 202.317 62.413C203.186 62.4854 203.838 62.6303 204.345 62.7027L206.229 63.0647C206.953 63.2095 207.677 63.4267 208.257 63.5715C208.836 63.7163 209.416 63.9335 210.068 64.1508C215.138 66.0333 218.18 69.2915 219.339 73.8529C220.136 77.0387 219.629 80.0797 217.818 83.0483C216.007 86.0169 213.472 88.551 210.14 90.6508C206.88 92.6057 203.548 93.909 199.999 94.5606C196.45 95.2122 193.335 94.8502 190.51 93.6917C187.975 92.4609 186.671 90.3611 186.598 87.3926C186.526 84.8584 187.323 82.4691 188.916 80.3693C190.075 78.8488 191.596 77.4732 193.625 76.3147C195.58 75.0838 197.536 74.215 199.347 73.7805C201.158 73.3461 202.969 73.3461 204.78 73.7805C205.939 74.0702 206.736 74.5046 207.17 75.2286C207.677 76.0975 207.605 77.1111 206.808 78.342C206.518 78.8488 206.156 78.9212 205.721 78.6316C205.287 78.342 205.142 77.98 205.504 77.5456C205.866 76.8215 206.011 76.3147 205.794 76.0251C205.577 75.7355 205.142 75.4458 204.345 75.301C202.824 74.939 201.23 74.939 199.709 75.3734C197.971 75.7355 196.232 76.5319 194.421 77.6904C192.61 78.8488 191.234 80.0797 190.22 81.383C188.771 83.2655 188.119 85.2204 188.192 87.3926C188.264 89.7095 189.206 91.3748 191.162 92.3161C193.625 93.4021 196.45 93.6917 199.709 93.1125C203.041 92.5333 206.229 91.3024 209.271 89.4199C212.386 87.465 214.776 85.148 216.37 82.4691C217.963 79.7901 218.47 77.1111 217.746 74.3598C216.732 70.3775 213.979 67.4814 209.488 65.8161C208.981 65.5988 208.402 65.3816 207.822 65.2368C207.243 65.092 206.591 64.8748 205.939 64.8024C205.214 64.6576 204.635 64.5128 204.128 64.4404C203.621 64.368 202.969 64.2232 202.172 64.0783C201.375 64.0059 200.796 63.8611 200.434 63.8611C200.071 63.8611 199.419 63.7163 198.478 63.5715C197.536 63.4267 196.957 63.3543 196.812 63.3543C195.291 63.2095 194.204 62.9923 193.552 62.7027C192.755 62.413 192.248 61.9786 191.959 61.4718C191.596 60.7477 191.596 59.9513 192.176 59.0824C193.335 57.1275 195.146 55.1726 197.609 53.3625C200.144 51.5524 202.534 50.1043 204.997 49.0906C206.663 48.3666 208.257 47.9322 209.778 47.8598C211.299 47.7874 212.675 47.9322 213.834 48.439C215.066 49.0906 215.718 50.0319 215.863 51.4076C215.935 52.7109 215.428 54.3038 214.197 56.1863C213.907 56.6207 213.545 56.6931 213.11 56.4035C212.675 56.0415 212.603 55.6794 212.893 55.1726Z" fill="black"/>
<path d="M226.8 92.5328V92.75V92.8948V92.9672V93.0396V93.112C226.8 93.1844 226.727 93.3292 226.582 93.474C226.438 93.6189 226.293 93.7637 226.075 93.7637C225.786 93.7637 225.568 93.6913 225.423 93.474C225.279 93.3292 225.206 93.2568 225.206 93.112V92.9672V92.8224V92.5328V92.3156V92.1708V91.9535V91.6639C225.206 91.0123 225.206 90.2882 225.134 89.5642C225.061 88.8402 225.061 88.2609 224.989 87.8265C224.844 85.0027 224.771 81.0929 224.771 76.1694C224.771 63.1366 224.989 53.2172 225.496 46.3388C225.496 46.1216 225.568 45.9768 225.786 45.832C225.93 45.6871 226.148 45.6147 226.365 45.6147C226.8 45.6872 227.017 45.9768 227.089 46.4836C226.582 53.2172 226.365 63.1366 226.365 76.1694V81.1653C227.307 77.7623 228.538 74.9385 229.914 72.694C231.218 70.7391 232.522 69.4358 233.971 68.8566C235.854 68.1325 237.665 68.6393 239.476 70.2322C241.649 72.1872 242.736 75.8798 242.881 81.3101C242.881 82.903 242.808 85.0027 242.663 87.6817C242.446 90.4331 242.374 92.2432 242.374 92.9672C242.374 93.474 242.084 93.7637 241.577 93.7637C241.07 93.7637 240.78 93.474 240.78 92.9672C240.78 92.1708 240.852 90.3607 241.07 87.6093C241.215 85.0027 241.287 82.903 241.287 81.3101C241.215 76.3866 240.273 73.056 238.462 71.4631C237.158 70.3046 235.854 69.9426 234.623 70.377C233.536 70.7391 232.45 71.8251 231.291 73.5628C229.552 76.3142 228.248 79.6448 227.524 83.3374C227.089 85.5096 226.8 88.3333 226.8 91.6639V92.1708V92.5328Z" fill="black"/>
<path d="M253.458 70.7394C256.355 70.5221 258.89 71.3186 260.919 73.1287C262.947 74.9388 264.323 77.2558 264.903 80.0071C265.265 81.3104 265.41 82.6137 265.265 83.9894C265.12 85.365 264.83 86.6683 264.323 87.8992C263.816 89.1301 263.019 90.2161 261.933 91.085C260.846 91.9538 259.542 92.6779 258.021 93.1123C255.051 93.9088 252.588 93.4743 250.56 91.7366C248.822 90.2885 247.663 88.1164 247.228 85.2202C246.866 82.6861 247.011 80.0795 247.88 77.473C248.749 74.8664 250.053 72.7667 251.936 71.2462C252.009 70.9566 252.226 70.7394 252.516 70.7394H252.588C252.951 70.667 253.24 70.667 253.458 70.7394ZM253.313 72.3323C251.574 73.6355 250.343 75.4456 249.546 77.9074C248.749 80.2967 248.532 82.6861 248.967 85.0754C249.329 87.5372 250.27 89.4197 251.719 90.6506C253.313 91.9538 255.341 92.3159 257.731 91.6642C260.194 91.0126 261.933 89.6369 262.874 87.4648C263.816 85.2926 264.033 82.9033 263.381 80.3691C262.802 77.9074 261.643 75.8801 259.832 74.3596C257.949 72.7667 255.848 72.0426 253.313 72.3323Z" fill="black"/>
<path d="M269.031 89.1294C268.959 85.7988 268.886 82.6854 268.886 79.9341C268.886 79.4272 269.176 79.1376 269.683 79.1376C270.19 79.1376 270.48 79.4272 270.48 79.9341V82.4682L270.842 80.8753C271.928 77.2551 273.377 74.5761 275.261 72.766C276.492 71.6076 277.796 71.0283 279.1 71.0283C280.621 71.1007 282.142 71.9696 283.663 73.5625C285.257 75.3002 286.126 77.8343 286.198 81.2373C286.271 83.4819 285.619 85.5092 284.243 87.3193C282.866 89.1294 281.2 90.5051 279.172 91.3739C277.723 92.0256 276.347 92.3876 274.898 92.46C273.45 92.5324 272.146 92.3152 270.987 91.8084C270.914 92.8944 270.914 95.501 270.914 99.6281V100.28C270.987 101.873 270.987 103.103 270.987 103.972V104.334C271.059 104.624 271.059 104.769 271.059 104.769V105.131C271.059 105.276 271.059 105.348 270.987 105.493C270.842 105.855 270.552 106 270.118 105.927C269.9 105.855 269.755 105.782 269.611 105.565C269.538 105.493 269.538 105.493 269.466 105.348C269.176 104.769 269.031 103.755 269.103 102.235C269.176 101.945 269.176 101.366 269.248 100.642C269.248 100.424 269.248 100.28 269.321 100.207C269.248 98.904 269.176 98.0352 269.176 97.6007C269.103 94.7046 269.031 92.1704 268.959 89.9983L268.886 89.9259C268.741 89.6362 268.741 89.3466 269.031 89.1294ZM271.059 89.9983C271.929 90.6499 273.015 90.9395 274.319 90.9395C275.623 90.9395 277.071 90.5775 278.52 89.9259C280.331 89.1294 281.78 87.9709 282.939 86.3781C284.098 84.8576 284.677 83.1198 284.605 81.2373C284.532 78.2688 283.88 76.0966 282.504 74.6485C281.345 73.3453 280.186 72.6936 279.1 72.6936C278.158 72.6936 277.216 73.128 276.347 73.9245C274.681 75.5174 273.377 77.9791 272.436 81.2373C271.711 83.6991 271.204 86.5953 271.059 89.9983Z" fill="black"/>
</g>
<defs>
<clipPath id="clip0_66_184">
<rect width="375.365" height="106" fill="white"/>
</clipPath>
</defs>
</svg>
