<svg width="46" height="59" viewBox="0 0 46 59" fill="none" xmlns="http://www.w3.org/2000/svg">
<g id="Group">
<g id="Group_2">
<path id="Vector" d="M30.2125 39.6721C30.5845 39.6308 30.9564 39.5896 31.2871 39.4657C31.659 39.3419 32.0723 39.218 32.4029 39.0529C33.2295 38.5988 33.4775 37.8557 33.1882 36.9475C33.0229 36.3696 32.6923 35.8742 32.3203 35.4201C32.279 35.3788 32.2376 35.2963 32.155 35.2137C32.7749 35.4201 33.3949 35.4614 33.9735 35.3788C34.8414 35.2963 35.6679 35.0486 36.3705 34.5532C37.2798 33.8927 37.5691 32.9432 37.1145 31.9112C36.9905 31.5397 36.7425 31.2507 36.5772 30.9204C36.5358 30.8379 36.4945 30.7966 36.4532 30.7553C37.0318 30.5076 37.6104 30.2599 38.189 29.971C39.1809 29.4343 39.9662 28.65 40.4621 27.5766C41.0407 26.2969 40.9167 24.9759 40.2968 23.7375C40.0901 23.2834 39.7595 22.8705 39.5115 22.4577C39.4702 22.4165 39.4289 22.3339 39.3876 22.2926C39.6769 22.21 39.9662 22.1688 40.2555 22.0862C41.082 21.7559 41.454 21.0129 41.33 20.0634C41.1234 18.825 40.0488 17.6691 38.8089 17.4214C38.8089 17.4214 38.7676 17.4214 38.685 17.4214C38.7676 17.4627 38.8089 17.504 38.8503 17.5452C39.1809 17.7929 39.4702 18.0819 39.6355 18.4121C40.0488 19.1965 39.8835 20.0221 39.1396 20.5588C38.6023 20.9303 38.0237 21.1367 37.4038 21.2193C37.1971 21.2606 36.9491 21.3019 36.6598 21.3431C36.7838 21.4257 36.8665 21.467 36.9491 21.5495C37.6517 22.0036 38.2717 22.5816 38.7263 23.2834C39.4702 24.4392 39.5115 25.5951 38.8089 26.751C37.6517 28.5674 35.9572 29.5994 33.7255 29.682C33.7255 29.682 33.6841 29.682 33.6428 29.682C33.6841 29.7646 33.7668 29.8058 33.8081 29.8884C34.0561 30.3012 34.3454 30.714 34.5521 31.1269C34.924 31.9938 34.676 32.7781 33.9321 33.3561C32.8989 34.1404 31.7004 34.4294 30.4192 34.3055H30.3778C30.5845 34.6358 30.7498 34.9248 30.9151 35.255C31.1218 35.6265 31.2457 36.0394 31.2044 36.4522C31.1631 36.9063 30.9564 37.2778 30.5845 37.5668C29.9645 38.0209 29.262 38.2273 28.5594 38.3511C27.5675 38.5162 26.6169 38.5575 25.625 38.4337C25.7903 38.5575 25.9143 38.7227 26.0796 38.8052C26.5756 39.1355 27.1542 39.3419 27.7328 39.4657C28.1874 39.5483 28.6833 39.6308 29.138 39.6721C29.4686 39.6721 29.8406 39.6721 30.2125 39.6721Z" fill="#BF9573"/>
<path id="Vector_2" d="M21.6556 0.0412815C21.4903 0.082563 21.325 0.123845 21.1597 0.165126C20.2504 0.412815 19.6305 0.990756 19.1759 1.77511C19.1345 1.85767 19.0519 1.98151 19.0105 2.06408C17.9773 1.07332 17.1507 0.866912 16.1588 1.40357C15.1256 1.98151 14.7123 2.93099 14.919 4.29328C13.8444 3.42637 12.6872 3.1374 11.4473 3.88046C10.4554 4.4584 10.1248 5.44916 10.2075 6.56376C10.4554 5.40788 11.1167 4.62353 12.2739 4.33456C13.3898 4.08687 14.3817 4.29328 15.2909 4.99506C15.3323 4.66481 15.3736 4.33456 15.4976 4.04559C15.5802 3.75662 15.7042 3.46765 15.8695 3.21996C16.2828 2.55945 16.9028 2.31177 17.688 2.51817C18.2253 2.64202 18.6799 2.93099 19.1345 3.26124C19.2172 3.3438 19.2998 3.38509 19.4238 3.46765C20.0851 2.31177 21.077 1.5687 22.4409 1.81639C23.9287 2.10536 24.4246 3.26124 24.6313 4.62353C25.0859 3.7979 25.8712 3.59149 26.6977 3.55021C28.4335 3.50893 29.8387 4.12815 30.872 5.57301C31.4092 6.35735 31.6159 7.22427 31.6159 8.2563C31.6572 8.13246 31.6985 8.09118 31.6985 8.0499C32.0705 7.01786 32.1945 5.94454 31.9052 4.87122C31.4506 3.3438 30.376 2.39433 28.8882 1.89895C28.2269 1.65126 27.483 1.5687 26.7804 1.69254C26.1191 1.77511 25.5818 2.02279 25.1686 2.51817C25.0446 2.18792 24.9619 1.85767 24.7966 1.5687C24.342 0.701786 23.5567 0.247689 22.6062 0.0412815C22.5235 0.0412815 22.4822 0 22.3995 0C22.1102 0.0412815 21.9036 0.0412815 21.6556 0.0412815Z" fill="#BF9573"/>
<path id="Vector_3" d="M45.1736 7.51315C44.9257 6.68752 44.2644 6.39855 43.4791 6.2747C41.7846 5.98573 40.1315 6.0683 38.4783 6.64624C37.0318 7.14162 35.7506 7.96725 34.6347 9.04057C33.8495 9.82491 33.1056 10.6918 32.3616 11.5175C32.3616 11.5175 32.3616 11.5587 32.3203 11.6413C32.4443 11.5587 32.5269 11.5175 32.6096 11.4762C33.9735 10.6093 35.296 9.70107 36.6599 8.87544C38.065 8.00853 39.5942 7.63699 41.206 7.51315C41.702 7.47187 42.1979 7.43059 42.6939 7.43059C42.9005 7.43059 43.1485 7.47187 43.3965 7.55443C43.7271 7.63699 43.8098 7.88468 43.6858 8.17365C43.5618 8.42134 43.4378 8.66903 43.2312 8.91672C42.4046 9.8662 41.4127 10.6505 40.4208 11.3936C38.4783 12.7972 36.4532 14.0769 34.3041 15.1502C33.9321 15.3154 33.5602 15.4805 33.1469 15.6456C33.4775 15.6869 33.7668 15.7695 34.0975 15.8107C35.172 15.8933 36.1639 15.6456 37.1558 15.2741C39.9248 14.1595 42.2806 12.5082 44.1404 10.1552C44.595 9.57723 44.967 8.958 45.1323 8.21494C45.1323 8.21494 45.1323 8.21494 45.1736 8.17365C45.1736 7.92597 45.1736 7.71956 45.1736 7.51315Z" fill="#BF9573"/>
<path id="Vector_4" d="M0 7.26557C0.082658 7.55455 0.123987 7.84352 0.206645 8.09121C0.537277 8.9994 1.11588 9.70118 1.8598 10.3204C3.71961 11.8891 5.91005 12.9211 8.30713 13.3752C8.38978 13.3752 8.47245 13.3752 8.5551 13.4165C8.63776 13.4165 8.67909 13.4165 8.76175 13.3752C8.63776 13.2927 8.47245 13.2101 8.34846 13.1276C7.06726 12.3845 5.74474 11.6827 4.46354 10.9396C3.59563 10.4443 2.81038 9.82503 2.14911 9.08196C1.57051 8.42146 1.19854 7.67839 1.19854 6.81148C1.19854 6.35738 1.36385 6.10969 1.81847 6.10969C2.31442 6.10969 2.81037 6.10969 3.30632 6.23354C5.53808 6.7702 7.52187 7.71967 9.25769 9.20581C9.83629 9.6599 10.2909 10.2378 10.5802 10.8983L10.6216 10.9396C10.5802 9.90759 10.2083 9.04068 9.58833 8.25633C8.59643 6.9766 7.31523 6.10969 5.82739 5.44919C4.75283 4.99509 3.67828 4.66484 2.52107 4.70612C2.06645 4.70612 1.61184 4.82996 1.15722 4.95381C0.495955 5.16022 0.0826605 5.61431 0.0413315 6.3161C0.0413315 6.39866 0 6.43994 0 6.52251C0 6.7702 0 7.01789 0 7.26557Z" fill="#BF9573"/>
<path id="Vector_5" d="M7.18915 27.4521C6.85852 27.2044 6.48656 27.0393 6.19726 26.7503C5.86663 26.4613 5.61866 26.1311 5.37068 25.7595C5.04005 25.1816 5.16404 24.6036 5.61866 24.1495C6.03195 23.7367 6.56923 23.489 7.1065 23.3239C7.27182 23.2826 7.43713 23.2001 7.60244 23.1588C8.01573 22.9937 8.22239 22.7047 8.13973 22.2506C8.05707 21.8791 7.93308 21.5075 7.80909 21.1773C7.47846 20.4342 7.1065 19.6911 6.77586 18.9481C6.48656 18.2876 6.32125 17.6271 6.48657 16.9253C6.56923 16.595 6.73454 16.3061 6.85853 16.0171C6.8172 16.0584 6.73454 16.1409 6.65188 16.1822C5.74265 16.9666 5.41201 17.9573 5.57733 19.0719C5.70131 19.815 5.90796 20.5581 6.07328 21.3011C6.19727 21.9616 6.19726 22.0442 5.57733 22.3332C5.2467 22.4983 4.87473 22.6634 4.5441 22.8698C4.29613 22.9937 4.04816 23.1588 3.84152 23.3652C3.26291 23.8193 3.13892 24.4385 3.34557 25.1403C3.51088 25.677 3.84151 26.1311 4.17214 26.5852C4.42012 26.9154 4.70942 27.2044 4.99872 27.5346C4.83341 27.5759 4.62677 27.6172 4.46145 27.6998C4.17215 27.8236 3.88285 27.9474 3.63487 28.1126C2.68431 28.7731 2.47766 29.8877 3.13892 30.8784C3.55221 31.5389 4.17215 31.9518 4.87474 32.282C4.99873 32.3646 5.12272 32.4059 5.28803 32.4884C4.75076 33.7681 5.08138 34.8415 6.19726 35.7084C7.18916 36.4927 8.34637 36.7404 9.58624 36.7404C9.54491 36.7404 9.50359 36.6991 9.42093 36.6991C8.75967 36.4514 8.0984 36.1625 7.56113 35.6671C6.56923 34.7589 6.27992 33.6443 6.69321 32.3646C6.73454 32.282 6.73454 32.1582 6.77586 32.0756C6.48656 31.8692 6.19726 31.7454 5.94929 31.5389C5.74264 31.3738 5.536 31.1674 5.32935 30.9197C4.79207 30.2179 4.83341 29.4336 5.37068 28.7731C5.78397 28.2777 6.32125 27.9474 6.85853 27.6998C6.98251 27.5346 7.1065 27.4934 7.18915 27.4521Z" fill="#BF9573"/>
<path id="Vector_6" d="M17.7727 26.0488C17.2768 26.4616 16.7808 26.9157 16.2849 27.2873C15.8302 27.6588 15.293 27.9065 14.7144 28.0303C13.7638 28.2367 12.9372 27.9065 12.276 27.246C11.904 26.8744 11.5734 26.4203 11.2014 26.0075C11.2014 26.7506 11.3667 27.4524 11.904 27.989C12.3173 28.4019 12.8132 28.7321 13.3505 28.9798C13.5158 29.0624 13.5572 29.1449 13.5572 29.3513C13.5572 29.599 13.5985 29.8467 13.5985 30.0531C13.5985 30.1357 13.5985 30.2595 13.5158 30.3421C13.3092 30.5485 13.0612 30.7962 12.8132 30.9613C12.3999 31.209 11.9866 31.1677 11.7387 30.7549C11.532 30.4247 11.3667 30.0944 11.2427 29.7229C10.7881 28.0303 10.6228 26.3378 10.9534 24.604C11.1187 23.6545 11.5734 22.7876 11.9453 21.9207C12.1933 21.3014 12.3999 20.6409 12.6066 20.0217C12.7719 19.5676 12.7306 19.0722 12.5239 18.6594C12.276 18.0815 11.9867 17.5448 11.6974 16.9669C11.5734 16.7605 11.4907 16.5541 11.3254 16.3477C11.408 16.6779 11.4907 16.9669 11.5734 17.2971C11.7387 17.9164 11.904 18.5769 11.8213 19.2374C11.78 19.5263 11.6973 19.8153 11.5734 20.063C10.3335 22.3335 9.9202 24.7691 10.0855 27.3698C10.1682 28.6083 10.4988 29.7642 10.9121 30.8788C10.9948 31.1677 11.1601 31.4154 11.3254 31.6631C11.6147 32.0346 11.9867 32.1585 12.4413 32.0346C12.7719 31.9108 13.0612 31.7869 13.3092 31.5805C13.5158 31.4567 13.5985 31.4567 13.8051 31.5805C14.549 31.9934 15.3343 32.2823 16.1609 32.4062C17.7314 32.6539 19.0952 32.241 20.2938 31.2503C21.5336 30.2595 22.3189 28.9798 22.9802 27.5349C22.9802 27.5349 22.9802 27.4937 22.9802 27.4111C22.8975 27.4937 22.8562 27.5762 22.8148 27.6175C21.9056 28.7321 20.8724 29.7642 19.6325 30.5072C18.7233 31.0852 17.7314 31.498 16.6568 31.5393C15.7476 31.5805 14.8797 31.4154 14.1358 30.8375C13.9704 30.7136 13.8878 30.5898 13.9291 30.3421C14.0118 30.0118 14.0531 29.6816 14.1358 29.3513C14.1771 29.1862 14.2184 29.1449 14.3837 29.1036C15.7889 28.6908 16.8635 27.9478 17.5661 26.6268C17.6487 26.4203 17.69 26.2552 17.7727 26.0488Z" fill="#BF9573"/>
<path id="Vector_7" d="M23.3084 30.3418C22.6472 31.0436 21.9446 31.7866 21.242 32.4472C20.4981 33.1489 19.6301 33.7269 18.6796 34.1397C16.5305 35.0066 14.3814 34.4699 12.9349 32.6536C12.8935 32.571 12.8109 32.5297 12.7695 32.4884C13.3068 33.892 13.9681 35.213 15.5799 35.6258C16.5718 35.8735 17.481 35.6671 18.3489 35.2543C19.7955 34.5938 20.994 33.5618 21.9859 32.3233C22.4405 31.7454 22.8125 31.0849 23.2258 30.4656C23.3084 30.3831 23.3497 30.3418 23.3084 30.3418Z" fill="#BF9573"/>
<path id="Vector_8" d="M28.9722 15.3155C28.9722 15.7283 29.0962 16.0173 29.4268 16.265C29.1375 16.3063 28.8895 16.3063 28.5589 16.3476C29.0548 16.6778 29.5921 16.8017 30.1294 16.7191C30.832 16.5953 31.4932 15.976 31.6586 15.2742C31.7412 14.9027 31.6586 14.7376 31.2866 14.6137C29.6334 14.0358 28.0216 14.5725 26.9884 16.0173C26.6164 16.554 26.3684 17.0906 26.2031 17.7099C27.0297 16.8842 27.8976 15.976 28.9722 15.3155Z" fill="#BF9573"/>
<path id="Vector_9" d="M11.983 16.0173C11.9004 15.7696 11.8177 15.4806 11.6937 15.2329H11.7351C11.9004 15.5632 12.0657 15.8934 12.1897 16.2237C12.8096 15.3568 12.3963 14.0358 11.4044 13.7468C11.1978 13.7055 11.0325 13.7468 10.9911 13.9532C10.7845 14.5312 10.7432 15.0678 10.9911 15.6458C11.2391 15.9347 11.6111 16.0999 11.983 16.0173Z" fill="#BF9573"/>
</g>
<g id="Group_3">
<path id="Vector_10" d="M13.7573 58.3723C11.9802 57.9182 10.1617 57.4641 8.38455 56.9687C8.13658 56.8862 7.92993 56.7623 7.64062 56.5972C16.3197 58.3723 22.1058 55.1936 25.0401 46.8135C25.2054 48.506 23.9242 52.469 22.6431 54.3267C21.0725 56.5972 18.9648 57.9182 16.1957 58.2072C16.0304 58.2072 15.9064 58.331 15.7411 58.3723C15.0798 58.3723 14.4186 58.3723 13.7573 58.3723Z" fill="#BF9573"/>
<path id="Vector_11" d="M21.2374 42.8091C20.8241 45.1621 20.5349 47.8867 18.923 50.2398C18.0138 51.5608 16.8566 51.7259 15.534 50.7764C14.3768 49.9508 13.5502 48.7949 12.8477 47.5152C13.1783 47.7629 13.5502 48.0106 13.8809 48.217C15.906 49.538 17.9311 49.2077 19.171 47.1024C20.0389 45.6575 20.6588 44.0475 21.2374 42.8091Z" fill="#BF9573"/>
<path id="Vector_12" d="M31.1572 39.7132C30.9092 40.7865 30.6612 41.8598 30.4546 42.9331C29.9586 45.4513 29.6693 47.9695 30.6199 50.5289C31.1158 51.8499 31.2398 53.2535 31.5705 54.6158C31.8598 55.8129 32.1904 56.9688 32.4384 58.166C32.4797 58.3724 32.4797 58.5788 32.3144 58.8265C31.8184 57.4229 31.3638 55.9781 30.8679 54.5745C30.5372 53.625 30.2066 52.6756 29.876 51.7261C29.2147 49.8684 29.0081 48.0107 29.3387 46.1531C29.7106 44.1716 30.2066 42.19 30.6612 40.2085C30.7025 40.0434 30.8265 39.8783 30.9092 39.6719C31.0332 39.7132 31.0745 39.7132 31.1572 39.7132Z" fill="#BF9573"/>
<path id="Vector_13" d="M2.68359 53.5836C3.30353 48.4647 3.92346 43.3045 4.50207 38.4746C5.32865 43.4284 4.29542 48.5473 2.68359 53.5836Z" fill="#BF9573"/>
</g>
</g>
</svg>
