<svg width="26" height="25" viewBox="0 0 26 25" fill="none" xmlns="http://www.w3.org/2000/svg">
<path id="Vector" d="M2.42103 24.6931L8.43055 18.7796C10.5221 20.5561 13.2048 21.4687 15.9205 21.3275C18.6363 21.1864 21.176 20.0023 23.0114 18.0217C24.8468 16.0412 25.8365 13.4165 25.7746 10.6937C25.7128 7.971 24.6041 5.35982 22.6793 3.40337C20.7545 1.44693 18.1618 0.29587 15.4404 0.189636C12.719 0.0834018 10.0786 1.03018 8.06831 2.83301C6.05806 4.63583 4.83278 7.15592 4.64737 9.86901C4.46195 12.5821 5.33068 15.2793 7.07282 17.3996L1.06211 23.3118C0.972882 23.3996 0.902103 23.5044 0.853813 23.6202C0.805523 23.736 0.780667 23.8606 0.780667 23.9868C0.780667 24.113 0.805523 24.2384 0.853813 24.3558C0.902103 24.4732 0.972882 24.5803 1.06211 24.671C1.15134 24.7616 1.25727 24.8342 1.37385 24.8844C1.49043 24.9346 1.61538 24.9615 1.74157 24.9635C1.86776 24.9656 1.99271 24.9427 2.10929 24.8964C2.22587 24.85 2.3318 24.7809 2.42103 24.6931ZM15.1867 2.1303C16.8962 2.15817 18.5673 2.69242 19.9887 3.66546C21.4101 4.63851 22.5179 6.00666 23.1721 7.59689C23.8263 9.18713 23.9975 10.928 23.664 12.5995C23.3305 14.2709 22.5073 15.7978 21.2985 16.987C20.0897 18.1762 18.5496 18.9744 16.873 19.2806C15.1963 19.5869 13.4584 19.3873 11.8791 18.7073C10.2997 18.0273 8.94982 16.8973 8.00008 15.4602C7.05034 14.0231 6.54342 12.3435 6.54342 10.6338C6.54596 8.34199 7.45741 6.15957 9.0778 4.56539C10.6982 2.97121 12.8952 2.09547 15.1867 2.1303Z" fill="#909090"/>
</svg>
